<?xml version="1.0" encoding="UTF-8"?>
<svg id="Layer_1" data-name="Layer 1" xmlns="http://www.w3.org/2000/svg" viewBox="0 0 570.55 549.59">
  <defs>
    <style>
      .cls-1 {
        fill: #fff;
      }

      .cls-2 {
        fill: none;
        stroke: #000;
        stroke-miterlimit: 10;
      }
    </style>
  </defs>
  <path class="cls-2" d="M373.49,367.65c-.14-.29-.29-.59-.43-.88"/>
  <path class="cls-2" d="M197.67,365.31c.18-.35.36-.71.54-1.06"/>
  <g>
    <path class="cls-1" d="M285.42,175.1c0-50.04,49.86-39.44,29.28,6.22,20.58-45.66,61.81-15.7,24.22,17.6,37.59-33.3,63.08,10.85,14.97,25.92,48.11-15.08,53.44,35.61,3.13,29.77,50.31,5.84,34.56,54.32-9.25,28.47,43.81,25.85,9.7,63.73-20.03,22.25,29.73,41.48-16.83,62.21-27.35,12.18,10.52,50.04-40.45,50.04-29.94,0-10.52,50.04-57.08,29.3-27.35-12.18-29.73,41.48-63.84,3.6-20.03-22.25-43.81,25.85-59.56-22.63-9.25-28.47-50.31,5.84-44.98-44.85,3.13-29.77-48.11-15.08-22.63-59.22,14.97-25.92-37.59-33.3,3.64-63.26,24.22-17.6-20.58-45.66,29.28-56.26,29.28-6.22Z"/>
    <path class="cls-2" d="M285.42,175.1c0-50.04,49.86-39.44,29.28,6.22,20.58-45.66,61.81-15.7,24.22,17.6,37.59-33.3,63.08,10.85,14.97,25.92,48.11-15.08,53.44,35.61,3.13,29.77,50.31,5.84,34.56,54.32-9.25,28.47,43.81,25.85,9.7,63.73-20.03,22.25,29.73,41.48-16.83,62.21-27.35,12.18,10.52,50.04-40.45,50.04-29.94,0-10.52,50.04-57.08,29.3-27.35-12.18-29.73,41.48-63.84,3.6-20.03-22.25-43.81,25.85-59.56-22.63-9.25-28.47-50.31,5.84-44.98-44.85,3.13-29.77-48.11-15.08-22.63-59.22,14.97-25.92-37.59-33.3,3.64-63.26,24.22-17.6-20.58-45.66,29.28-56.26,29.28-6.22Z"/>
  </g>
  <path class="cls-2" d="M285.21,547.16c-120.97-53.48-83.06-176.86-46.9-234.92"/>
  <path class="cls-2" d="M285.21,547.16c120.97-53.48,83.06-176.86,46.9-234.92"/>
  <path class="cls-2" d="M570.06,339.21c-88.24,98.52-193.87,24.35-237.91-27.99"/>
  <path class="cls-2" d="M570.06,339.21c-13.48-131.57-142.54-133.65-208.93-117.19"/>
  <path class="cls-2" d="M461.44,4.56c66.43,114.36-36.75,191.91-100.14,217.62"/>
  <path class="cls-2" d="M461.44,4.56c-129.3-27.84-171.16,94.26-176.02,162.49"/>
  <path class="cls-2" d="M108.98,4.56c129.3-27.84,171.16,94.26,176.02,162.49"/>
  <path class="cls-2" d="M108.98,4.56c-66.43,114.36,36.75,191.91,100.14,217.62"/>
  <path class="cls-2" d="M.5,339.21c13.48-131.57,142.54-133.65,208.93-117.19"/>
  <path class="cls-2" d="M.5,339.21c88.24,98.52,193.87,24.35,237.91-27.99"/>
</svg>